<?xml version="1.0" encoding="UTF-8"?>
<svg width="599px" height="203px" viewBox="0 0 599 203" version="1.1" xmlns="http://www.w3.org/2000/svg" xmlns:xlink="http://www.w3.org/1999/xlink">
    <!-- Generator: Sketch 49.3 (51167) - http://www.bohemiancoding.com/sketch -->
    <title>logo-hooli-bottom</title>
    <desc>Created with Sketch.</desc>
    <defs></defs>
    <g id="Page-1" stroke="none" stroke-width="1" fill="none" fill-rule="evenodd">
        <g id="logo-hooli-bottom" transform="translate(-1.000000, 0.000000)" fill="#FFFFFF" fill-rule="nonzero">
            <path d="M476.51,191.73 L530.65,191.73 L530.65,4.23 L476.53,29.73 L476.53,191.73 L476.51,191.73 Z M545.51,87.61 L545.51,191.73 L599.65,191.73 L599.65,87.61 L545.51,87.61 Z M311,79.23 C294,62.23 263.83,63.23 263.83,63.23 C263.83,63.23 233.67,62.23 216.67,79.23 C214.896799,80.9917162 213.227326,82.854848 211.67,84.81 C175.96,57.14 143.87,37.19 116.17,23.62 L116.17,4.23 L95.09,14.15 C44.2,-6.52 11.81,-2.85 4.09,14.26 C4.09,14.26 -19.19,48.99 62,122.07 L62,93.07 C16.35,42 25.54,17.8 29,14.91 C41.62,4.23 64.12,7.41 89.24,16.91 L62,29.73 L62,93.06 C74.29,106.81 90.54,122.49 112,140.23 C113.393333,141.376667 114.783333,142.506667 116.17,143.62 L116.17,115.73 C116.17,109.23 117.73,98.73 126.23,98.73 C134.73,98.73 136.17,105.23 136.17,112.73 L136.17,158.33 C152.970078,169.749067 171.104978,179.068391 190.17,186.08 L190.17,98.23 C190.17,80.73 177.67,63.23 152.17,63.23 C137.359415,63.1029415 123.618118,70.9278467 116.17,83.73 L116.17,28.87 C155.32,48.45 194.67,76.45 209.66,87.49 C200.08,101.15 201,113.79 201,128.4 C201,145.9 199.67,160.57 216.67,177.57 C233.67,194.57 263.84,193.57 263.84,193.57 C263.84,193.57 294.01,194.57 311.01,177.57 C328.01,160.57 326.62,145.9 326.62,128.4 C326.62,110.9 328,96.23 311,79.23 Z M273.83,146.56 C273.83,149.89 272.16,158.23 263.83,158.23 C255.5,158.23 253.83,149.9 253.83,146.56 L253.83,108.73 C253.83,100.56 260.66,98.56 263.83,98.56 C267,98.56 273.83,100.56 273.83,108.73 L273.83,146.56 Z M447.53,79.23 C430.53,62.23 400.36,63.23 400.36,63.23 C400.36,63.23 370.19,62.23 353.19,79.23 C336.19,96.23 337.5,110.9 337.5,128.4 C337.5,145.9 336.17,160.57 353.17,177.57 C370.17,194.57 400.34,193.57 400.34,193.57 C400.34,193.57 430.51,194.57 447.51,177.57 C464.51,160.57 463.18,145.9 463.18,128.4 C463.18,110.9 464.51,96.23 447.51,79.23 L447.53,79.23 Z M410.36,146.56 C410.36,149.89 408.69,158.23 400.36,158.23 C392.03,158.23 390.36,149.9 390.36,146.56 L390.36,108.73 C390.36,100.56 397.19,98.56 400.36,98.56 C403.53,98.56 410.36,100.56 410.36,108.73 L410.36,146.56 Z M572.59,78.23 C587.501688,78.23 599.59,66.1416882 599.59,51.23 C599.59,36.3183118 587.501688,24.23 572.59,24.23 C557.678312,24.23 545.59,36.3183118 545.59,51.23 C545.59,66.1416882 557.678312,78.23 572.59,78.23 Z M136.15,191.73 L172,191.73 C159.653573,187.441061 147.666115,182.181292 136.15,176 L136.15,191.73 Z M116.15,191.73 L116.15,164.23 C110.09,160.323333 104.033333,156.09 97.98,151.53 C84.16,141.08 72.26,131.26 62,122 L62,191.69 L116.15,191.73 Z M171.99,191.73 C206.12,203.46 237.35,205.01 260.56,198.49 C241.91,198.71 217.69,196.07 190.16,186.08 L190.16,191.72 L172,191.72 L171.99,191.73 Z" id="Shape"></path>
        </g>
    </g>
</svg>